<svg width="59" height="66" viewBox="0 0 59 66" fill="none" xmlns="http://www.w3.org/2000/svg">
<path d="M53.0322 60.83L29.2592 65.9824L5.4859 60.83L0 12.9915H58.5187L53.0322 60.83Z" fill="#2062AF"/>
<path d="M29.259 16.8663V61.8729L29.3127 61.8847L48.5512 57.7148L52.9918 16.8663H29.259Z" fill="#3C9CD7"/>
<path d="M15.767 5.96301V3.11566H20.9281V0H11.8962V8.80611H20.9281V5.96301H15.767ZM30.2123 3.11566H33.8205V0H24.7878V3.11566C25.9963 4.08838 26.6265 4.55394 28.3743 5.96071C27.3526 5.96071 24.7878 5.96361 24.7878 5.96361V8.80611H33.8205V5.96301L30.2123 3.11566ZM43.0145 3.11566H46.6226V0H37.5896V3.11566C38.798 4.08838 39.4286 4.55394 41.1764 5.96071C40.155 5.96071 37.5896 5.96361 37.5896 5.96361V8.80611H46.6228V5.96301L43.0145 3.11566Z" fill="black"/>
<path d="M29.2379 28.8279L12.2228 34.5319L12.787 40.1792L29.2379 34.5176L46.7373 28.4953L47.4628 22.7183L29.2379 28.8279Z" fill="white"/>
<path d="M12.2227 34.5318L12.7869 40.1791L29.2378 34.5174V28.8278L12.2227 34.5318Z" fill="url(#paint0_linear_836_58)"/>
<path d="M12.2488 34.5319L12.8132 40.1792L38.0548 40.244L37.4902 47.7737L29.1843 49.6559L21.1998 48.0331L20.716 43.3595H13.297L14.2648 52.3821L29.2649 55.9521L44.1837 52.4469L46.1193 34.5319H12.2488Z" fill="url(#paint1_linear_836_58)"/>
<path opacity="0.05" d="M29.2379 34.5319H12.2228L12.787 40.1792L29.2379 40.2215V34.5319ZM29.2379 49.6379L29.1572 49.656L21.1738 48.0333L20.69 43.3596H13.2712L14.2388 52.3823L29.2379 55.9522V49.6379Z" fill="black"/>
<path d="M10.6904 22.7183H47.4629L46.7373 28.4953H11.5774L10.6904 22.7183Z" fill="url(#paint2_linear_836_58)"/>
<path opacity="0.05" d="M29.2379 22.7183H10.6904L11.5774 28.4953H29.2379V22.7183Z" fill="black"/>
<defs>
<linearGradient id="paint0_linear_836_58" x1="20.7302" y1="40.1792" x2="20.7302" y2="28.8279" gradientUnits="userSpaceOnUse">
<stop offset="0.387" stop-color="#D1D3D4" stop-opacity="0"/>
<stop offset="1" stop-color="#D1D3D4"/>
</linearGradient>
<linearGradient id="paint1_linear_836_58" x1="12.2488" y1="45.2421" x2="46.1191" y2="45.2421" gradientUnits="userSpaceOnUse">
<stop stop-color="#E8E7E5"/>
<stop offset="1" stop-color="white"/>
</linearGradient>
<linearGradient id="paint2_linear_836_58" x1="10.6904" y1="25.6068" x2="47.4627" y2="25.6068" gradientUnits="userSpaceOnUse">
<stop stop-color="#E8E7E5"/>
<stop offset="1" stop-color="white"/>
</linearGradient>
</defs>
</svg>
