<svg width="77" height="68" viewBox="0 0 77 68" fill="none" xmlns="http://www.w3.org/2000/svg">
<g clip-path="url(#clip0_16_321)">
<path d="M65.707 13.1634L60.7498 61.5937L38.4667 66.981L16.2451 61.6011L11.293 13.1634H65.707Z" fill="#E44D26"/>
<path d="M38.5 62.863L56.5059 58.5098L60.7419 17.1238H38.5V62.863Z" fill="#F16529"/>
<path d="M28.8633 29.0053H38.5V23.0646H21.4186L21.5815 24.6584L23.2559 41.0294H38.5V35.0887H29.4859L28.8633 29.0053ZM30.3986 43.9998H23.5603L24.5146 53.3276L38.4686 56.7056L38.5 56.6982V50.5173L38.4701 50.5242L30.8836 48.7378L30.3986 43.9998Z" fill="#EBEBEB"/>
<path d="M16.3556 0H19.8174V2.98271H22.9842V0H26.4462V9.0324H22.9844V6.00784H19.8176V9.0324H16.3558V0H16.3556ZM30.9984 2.99536H27.9512V0H37.5099V2.99536H34.4608V9.0324H30.999V2.99536H30.9988H30.9984ZM39.0269 0H42.6365L44.8569 3.17375L47.0752 0H50.6863V9.0324H47.2386V4.55545L44.8569 7.76696H44.7972L42.414 4.55545V9.0324H39.0269V0ZM52.4091 0H55.8719V6.0469H60.7402V9.0324H52.4089V0H52.4091Z" fill="black"/>
<path d="M38.4765 41.0294H46.8648L46.0739 48.734L38.4763 50.5224V56.7028L52.4415 53.3276L52.5439 52.3239L54.1449 36.6839L54.311 35.0887H38.4765V41.0294ZM38.4765 28.9908V29.0053H54.9309L55.0674 27.6701L55.3779 24.6584L55.5407 23.0646H38.4765V28.991V28.9908Z" fill="white"/>
</g>
<defs>
<clipPath id="clip0_16_321">
<rect width="77" height="67.1506" fill="white"/>
</clipPath>
</defs>
</svg>
