<svg width="84" height="80" viewBox="0 0 84 80" fill="none" xmlns="http://www.w3.org/2000/svg">
<path d="M72.1875 0H43.125L36.5625 13.125H0V65.625H78.75V0H72.1875ZM72.1875 13.125H46.5625L50 6.5625H72.1875V13.125Z" fill="#458248"/>
<path d="M69.9219 79.6875L68.1625 79.1031C68.1625 79.1031 68.3875 70.1937 65.175 69.5719C63.0562 67.1156 65.4875 -35.2906 73.1969 69.2219C71.7335 69.9634 70.6137 71.2422 70.0719 72.7906C69.7814 75.078 69.7311 77.3896 69.9219 79.6875Z" fill="url(#paint0_linear_837_69)"/>
<path d="M70.8719 71.0844C75.5575 67.5557 79.1455 62.7698 81.2188 57.2828C83.2921 51.7957 83.7657 45.833 82.5844 40.0875C79.1469 24.8875 70.9875 19.8906 70.1094 17.9844C69.3505 16.7966 68.7029 15.5413 68.175 14.2344L68.825 56.5844C68.825 56.5844 67.4782 69.525 70.8719 71.0844Z" fill="url(#paint1_linear_837_69)"/>
<path d="M67.2656 71.6469C67.2656 71.6469 52.9187 61.875 53.75 44.5906C53.8275 39.3797 55.0223 34.2461 57.2536 29.5365C59.485 24.8269 62.7009 20.6509 66.6844 17.2906C67.1488 16.894 67.5178 16.3978 67.7639 15.8389C68.0101 15.28 68.1271 14.6728 68.1062 14.0625C69 15.9844 68.8531 42.7563 68.9469 45.8875C69.3125 58.0688 68.2719 69.3469 67.2656 71.6469Z" fill="url(#paint2_linear_837_69)"/>
<defs>
<linearGradient id="paint0_linear_837_69" x1="58.0875" y1="47.4658" x2="78.32" y2="54.3297" gradientUnits="userSpaceOnUse">
<stop offset="0.231" stop-color="#999875"/>
<stop offset="0.563" stop-color="#9B9977"/>
<stop offset="0.683" stop-color="#A09F7E"/>
<stop offset="0.768" stop-color="#A9A889"/>
<stop offset="0.837" stop-color="#B7B69A"/>
<stop offset="0.896" stop-color="#C9C7B0"/>
<stop offset="0.948" stop-color="#DEDDCB"/>
<stop offset="0.994" stop-color="#F8F6EB"/>
<stop offset="1" stop-color="#FBF9EF"/>
</linearGradient>
<linearGradient id="paint1_linear_837_69" x1="65.5083" y1="13.9319" x2="74.453" y2="69.7807" gradientUnits="userSpaceOnUse">
<stop stop-color="#48A547"/>
<stop offset="1" stop-color="#3F9143"/>
</linearGradient>
<linearGradient id="paint2_linear_837_69" x1="52.5149" y1="46.3015" x2="76.5164" y2="38.2634" gradientUnits="userSpaceOnUse">
<stop stop-color="#41A247"/>
<stop offset="0.352" stop-color="#4BA74B"/>
<stop offset="0.956" stop-color="#67B554"/>
<stop offset="1" stop-color="#69B655"/>
</linearGradient>
</defs>
</svg>
